<svg width="1022" height="1024" viewBox="0 0 1022 1024" fill="none" xmlns="http://www.w3.org/2000/svg">
<path d="M0.271194 229.322C0.271194 103.926 101.925 2.27147 227.322 2.27147H794.949C920.346 2.27147 1022 103.926 1022 229.322V796.949C1022 922.346 920.346 1024 794.949 1024H227.322C101.925 1024 0.271194 922.346 0.271194 796.949V229.322Z" fill="#FF8B15"/>
<path d="M284.085 229.322L1022 569.898V796.949C1022 922.345 920.346 1024 794.949 1024H653.042L284.085 229.322Z" fill="#7A659D" fill-opacity="0.34"/>
<path d="M121.446 418.7L432.27 107.875L925.816 601.421L614.992 912.246L121.446 418.7Z" fill="white"/>
<path d="M30.8682 949.983C28.9145 964.147 22.0767 977.09 11.3315 986.37Z" fill="white"/>
<path d="M473.066 220.721C495.267 198.519 495.267 162.522 473.066 140.321C450.864 118.119 414.867 118.119 392.666 140.321C370.464 162.522 370.464 198.519 392.666 220.721C414.867 242.922 450.864 242.922 473.066 220.721Z" fill="#2FC18C"/>
<path d="M904.056 641.015C926.258 618.813 926.258 582.817 904.056 560.615C881.855 538.413 845.858 538.413 823.656 560.615C801.455 582.817 801.455 618.813 823.656 641.015C845.858 663.216 881.854 663.216 904.056 641.015Z" fill="#2FC18C"/>
<path d="M226.188 467.593C248.39 445.392 248.39 409.395 226.188 387.194C203.986 364.992 167.99 364.992 145.788 387.194C123.586 409.395 123.586 445.392 145.788 467.593C167.99 489.795 203.986 489.795 226.188 467.593Z" fill="#2FC18C"/>
<path d="M647.706 889.113C669.908 866.912 669.908 830.915 647.706 808.713C625.504 786.512 589.508 786.512 567.306 808.713C545.104 830.915 545.104 866.912 567.306 889.113C589.508 911.315 625.504 911.315 647.706 889.113Z" fill="#2FC18C"/>
<path d="M910.497 589.745L881.659 618.583L409.74 146.663L438.577 117.825L910.497 589.745Z" fill="#2FC18C"/>
<path d="M623.677 865.061L594.839 893.899L122.92 421.979L151.757 393.141L623.677 865.061Z" fill="#2FC18C"/>
<path d="M438.825 106.047L467.999 135.222L152.081 451.14L122.906 421.966L438.825 106.047Z" fill="#2FC18C"/>
<path d="M898.727 565.942L927.902 595.116L611.983 911.035L582.809 881.861L898.727 565.942Z" fill="#2FC18C"/>
<path d="M682.763 665.927C737.521 611.168 710.19 495.056 621.717 406.582C533.243 318.109 417.13 290.777 362.372 345.536C307.613 400.295 334.944 516.408 423.418 604.881C511.891 693.355 628.004 720.686 682.763 665.927Z" fill="#2FC18C"/>
<path d="M769.164 443.535L454.868 757.829C453.738 758.959 452.495 759.771 451.14 760.473C445.616 763.17 438.506 762.021 433.725 757.242L267.031 590.549C262.25 585.768 261.101 578.658 263.801 573.135C264.503 571.782 265.314 570.536 266.445 569.406L580.737 255.109C581.868 253.979 583.113 253.167 584.466 252.465C589.99 249.768 597.099 250.917 601.881 255.696L768.574 422.389C773.356 427.17 774.505 434.28 771.805 439.803C771.103 441.159 770.294 442.404 769.164 443.535Z" fill="#2FC18C"/>
<path fill-rule="evenodd" clip-rule="evenodd" d="M266.445 569.406C265.314 570.536 264.503 571.782 263.801 573.135C261.101 578.658 262.25 585.768 267.031 590.549L433.725 757.242C438.506 762.021 445.616 763.17 451.14 760.473C452.495 759.771 453.738 758.959 454.868 757.829L769.164 443.535C770.294 442.404 771.103 441.159 771.805 439.803C774.505 434.28 773.356 427.17 768.574 422.389L601.881 255.696C597.099 250.917 589.99 249.768 584.466 252.465C583.113 253.167 581.868 253.979 580.737 255.109L266.445 569.406ZM591.016 301.023L312.358 579.684L444.59 711.915L723.25 433.256L591.016 301.023Z" fill="#036B52"/>
<path d="M961.314 19.5368C975.478 17.5831 988.421 10.7452 997.701 0Z" fill="white"/>
<path fill-rule="evenodd" clip-rule="evenodd" d="M433.705 145.713C432.759 144.767 431.224 144.767 430.278 145.713L155.729 420.263C154.783 421.208 154.783 422.744 155.729 423.689L140.174 439.244L155.729 423.69L610.268 878.231C611.213 879.177 612.749 879.177 613.694 878.231L888.244 603.679C889.19 602.733 889.19 601.198 888.244 600.252L433.705 145.713ZM399.169 114.604C417.296 96.4769 446.687 96.4769 464.814 114.604L919.353 569.143C937.48 587.27 937.48 616.661 919.353 634.788L644.804 909.34C626.677 927.467 597.285 927.467 579.158 909.34L124.619 454.799C106.493 436.672 106.493 407.28 124.619 389.153L399.169 114.604Z" fill="#FF9D15"/>
</svg>
